<svg xmlns="http://www.w3.org/2000/svg" xmlns:xlink="http://www.w3.org/1999/xlink" width="2560" zoomAndPan="magnify" viewBox="0 0 1920 449.999984" height="600" preserveAspectRatio="xMidYMid meet" version="1.0"><defs><g/></defs><g fill="#ffffff" fill-opacity="0.302"><g transform="translate(61.254203, 367.504017)"><g><path d="M 111.203125 2.25 C 94.421875 2.25 79.203125 -1.441406 65.546875 -8.828125 C 51.898438 -16.210938 41.070312 -27.109375 33.0625 -41.515625 C 25.050781 -55.921875 21.046875 -73.140625 21.046875 -93.171875 C 21.046875 -108.453125 23.671875 -125.484375 28.921875 -144.265625 C 40.453125 -184.335938 58.550781 -212.640625 83.21875 -229.171875 C 107.882812 -245.703125 134.242188 -253.96875 162.296875 -253.96875 C 187.847656 -253.96875 210.894531 -244.703125 231.4375 -226.171875 L 242.703125 -237.0625 C 248.960938 -242.320312 254.347656 -245.953125 258.859375 -247.953125 C 263.367188 -249.960938 268.628906 -250.96875 274.640625 -250.96875 C 281.148438 -250.96875 286.410156 -249.398438 290.421875 -246.265625 C 294.429688 -243.140625 296.4375 -238.945312 296.4375 -233.6875 C 296.4375 -231.6875 296.054688 -229.304688 295.296875 -226.546875 L 281.78125 -179.203125 C 279.269531 -171.191406 276.320312 -165.554688 272.9375 -162.296875 C 269.5625 -159.046875 264.992188 -157.421875 259.234375 -157.421875 C 253.222656 -157.421875 247.898438 -158.921875 243.265625 -161.921875 C 238.628906 -164.929688 233.304688 -170.316406 227.296875 -178.078125 C 219.285156 -188.597656 212.210938 -196.050781 206.078125 -200.4375 C 199.941406 -204.820312 193.238281 -207.015625 185.96875 -207.015625 C 174.695312 -207.015625 163.988281 -201.316406 153.84375 -189.921875 C 143.707031 -178.523438 134.878906 -159.550781 127.359375 -133 C 122.597656 -115.71875 120.21875 -100.816406 120.21875 -88.296875 C 120.21875 -75.015625 122.785156 -64.929688 127.921875 -58.046875 C 133.054688 -51.160156 140.257812 -47.71875 149.53125 -47.71875 C 157.539062 -47.71875 163.738281 -49.59375 168.125 -53.34375 C 172.507812 -57.101562 175.953125 -63.617188 178.453125 -72.890625 L 181.09375 -82.28125 C 182.34375 -87.289062 182.96875 -90.671875 182.96875 -92.421875 C 182.96875 -95.429688 182.273438 -97.5625 180.890625 -98.8125 C 179.515625 -100.0625 177.203125 -101.4375 173.953125 -102.9375 L 160.796875 -107.828125 C 155.035156 -110.078125 152.15625 -114.207031 152.15625 -120.21875 C 152.15625 -121.976562 152.28125 -123.359375 152.53125 -124.359375 C 153.53125 -127.609375 155.34375 -129.984375 157.96875 -131.484375 C 160.601562 -132.992188 164.675781 -133.75 170.1875 -133.75 L 283.65625 -133.375 C 291.914062 -133.375 296.046875 -130.742188 296.046875 -125.484375 C 296.046875 -124.484375 295.796875 -122.976562 295.296875 -120.96875 C 294.296875 -117.21875 292.664062 -114.210938 290.40625 -111.953125 C 288.15625 -109.703125 284.90625 -107.453125 280.65625 -105.203125 L 270.875 -99.5625 C 268.375 -98.0625 266.5 -96.617188 265.25 -95.234375 C 264 -93.859375 263.117188 -92.171875 262.609375 -90.171875 L 242.703125 -20.65625 C 240.203125 -12.394531 237.382812 -6.882812 234.25 -4.125 C 231.113281 -1.375 227.296875 0 222.796875 0 L 207.015625 0 C 201.003906 0 196.054688 -1.25 192.171875 -3.75 C 188.285156 -6.257812 185.09375 -11.144531 182.59375 -18.40625 L 178.828125 -29.3125 C 160.796875 -8.269531 138.253906 2.25 111.203125 2.25 Z M 111.203125 2.25 "/></g></g></g><g fill="#ffffff" fill-opacity="0.302"><g transform="translate(345.65331, 367.504017)"><g><path d="M 229.546875 -199.5 C 234.304688 -216.78125 241.003906 -229.800781 249.640625 -238.5625 C 258.285156 -247.332031 270.25 -251.71875 285.53125 -251.71875 C 297.550781 -251.71875 307.191406 -247.894531 314.453125 -240.25 C 321.722656 -232.613281 325.359375 -223.160156 325.359375 -211.890625 C 325.359375 -208.140625 324.734375 -203.757812 323.484375 -198.75 C 320.722656 -187.726562 315.835938 -179.773438 308.828125 -174.890625 C 301.816406 -170.003906 294.175781 -167.5625 285.90625 -167.5625 C 281.644531 -167.5625 277.820312 -167.875 274.4375 -168.5 C 271.0625 -169.125 267.875 -169.9375 264.875 -170.9375 L 242.703125 -89.421875 C 234.691406 -59.609375 221.289062 -36.875 202.5 -21.21875 C 183.71875 -5.570312 158.171875 2.25 125.859375 2.25 C 96.304688 2.25 73.328125 -3.382812 56.921875 -14.65625 C 40.515625 -25.925781 32.3125 -43.457031 32.3125 -67.25 C 32.3125 -78.769531 34.316406 -91.421875 38.328125 -105.203125 L 66.875 -206.265625 C 67.875 -209.515625 68.375 -212.644531 68.375 -215.65625 C 68.375 -218.65625 67.9375 -221.09375 67.0625 -222.96875 C 66.1875 -224.851562 65 -227.046875 63.5 -229.546875 C 61.238281 -232.804688 60.109375 -235.4375 60.109375 -237.4375 C 60.109375 -238.445312 60.359375 -239.703125 60.859375 -241.203125 C 61.859375 -244.453125 64.113281 -246.765625 67.625 -248.140625 C 71.132812 -249.523438 76.269531 -250.21875 83.03125 -250.21875 L 171.328125 -250.21875 C 182.085938 -250.21875 187.46875 -246.960938 187.46875 -240.453125 C 187.46875 -238.953125 187.34375 -237.695312 187.09375 -236.6875 C 186.34375 -234.4375 185.28125 -232.617188 183.90625 -231.234375 C 182.53125 -229.859375 180.460938 -228.296875 177.703125 -226.546875 C 173.703125 -224.296875 170.445312 -221.789062 167.9375 -219.03125 C 165.4375 -216.28125 163.304688 -212.023438 161.546875 -206.265625 L 128.859375 -91.296875 C 126.609375 -82.773438 125.484375 -75.507812 125.484375 -69.5 C 125.484375 -52.71875 134.5 -44.328125 152.53125 -44.328125 C 163.550781 -44.328125 172.753906 -47.894531 180.140625 -55.03125 C 187.535156 -62.175781 193.738281 -74.390625 198.75 -91.671875 Z M 229.546875 -199.5 "/></g></g></g><g fill="#ffffff" fill-opacity="0.302"><g transform="translate(641.698874, 367.504017)"><g><path d="M 245.328125 -250.21875 C 254.597656 -250.21875 261.800781 -248.210938 266.9375 -244.203125 C 272.070312 -240.203125 274.640625 -234.691406 274.640625 -227.671875 C 274.640625 -224.171875 274.140625 -220.789062 273.140625 -217.53125 L 263.375 -182.59375 C 261.613281 -175.832031 259.039062 -171.132812 255.65625 -168.5 C 252.28125 -165.875 247.460938 -164.5625 241.203125 -164.5625 C 235.191406 -164.5625 230.492188 -165.875 227.109375 -168.5 C 223.734375 -171.132812 221.164062 -175.457031 219.40625 -181.46875 L 213.40625 -202.875 C 212.144531 -207.382812 210.640625 -210.390625 208.890625 -211.890625 C 207.140625 -213.398438 203.757812 -214.15625 198.75 -214.15625 L 159.296875 -214.15625 L 140.515625 -147.28125 L 157.046875 -147.28125 C 158.796875 -147.28125 161.175781 -148.53125 164.1875 -151.03125 L 176.953125 -162.296875 C 180.710938 -165.554688 183.96875 -167.9375 186.71875 -169.4375 C 189.476562 -170.945312 192.863281 -171.703125 196.875 -171.703125 C 201.375 -171.703125 205.0625 -170.507812 207.9375 -168.125 C 210.820312 -165.75 212.265625 -162.679688 212.265625 -158.921875 C 212.265625 -157.921875 212.015625 -156.414062 211.515625 -154.40625 L 196.109375 -102.1875 C 194.609375 -96.675781 192.039062 -92.601562 188.40625 -89.96875 C 184.78125 -87.34375 180.835938 -86.03125 176.578125 -86.03125 C 169.566406 -86.03125 164.304688 -89.664062 160.796875 -96.9375 L 154.40625 -110.078125 C 152.65625 -113.835938 149.90625 -115.71875 146.15625 -115.71875 L 131.5 -115.71875 L 109.328125 -36.0625 L 142.390625 -36.0625 C 147.148438 -36.0625 151.34375 -37 154.96875 -38.875 C 158.601562 -40.757812 162.550781 -44.082031 166.8125 -48.84375 L 189.359375 -73.640625 C 193.359375 -77.898438 197.175781 -80.96875 200.8125 -82.84375 C 204.445312 -84.71875 208.894531 -85.65625 214.15625 -85.65625 C 219.664062 -85.65625 224.171875 -84.398438 227.671875 -81.890625 C 231.179688 -79.390625 232.9375 -75.632812 232.9375 -70.625 C 232.9375 -68.625 232.5625 -66.25 231.8125 -63.5 L 220.90625 -25.546875 C 218.15625 -16.023438 214.148438 -9.382812 208.890625 -5.625 C 203.628906 -1.875 195.988281 0 185.96875 0 L 6.765625 0 C 1.503906 0 -2.5625 -0.875 -5.4375 -2.625 C -8.320312 -4.382812 -9.765625 -6.765625 -9.765625 -9.765625 C -9.765625 -11.265625 -9.390625 -12.894531 -8.640625 -14.65625 C -7.640625 -17.40625 -6.007812 -19.53125 -3.75 -21.03125 C -1.5 -22.539062 -0.125 -23.421875 0.375 -23.671875 C 4.382812 -26.171875 7.640625 -28.734375 10.140625 -31.359375 C 12.648438 -33.992188 14.78125 -38.316406 16.53125 -44.328125 L 62.75 -206.265625 C 63.75 -209.515625 64.25 -212.519531 64.25 -215.28125 C 64.25 -218.28125 63.804688 -220.78125 62.921875 -222.78125 C 62.046875 -224.789062 60.734375 -226.921875 58.984375 -229.171875 C 56.734375 -232.429688 55.609375 -235.0625 55.609375 -237.0625 C 55.609375 -237.820312 55.859375 -239.203125 56.359375 -241.203125 C 57.359375 -244.453125 59.609375 -246.765625 63.109375 -248.140625 C 66.617188 -249.523438 71.753906 -250.21875 78.515625 -250.21875 Z M 245.328125 -250.21875 "/></g></g></g><g fill="#ffffff" fill-opacity="0.302"><g transform="translate(893.788425, 367.504017)"><g><path d="M 140.515625 -252.46875 C 154.535156 -252.46875 167.492188 -250.773438 179.390625 -247.390625 C 191.296875 -244.015625 203.382812 -238.695312 215.65625 -231.4375 L 224.296875 -238.578125 C 230.304688 -243.328125 235.25 -246.578125 239.125 -248.328125 C 243.007812 -250.085938 247.457031 -250.96875 252.46875 -250.96875 C 258.476562 -250.96875 263.238281 -249.648438 266.75 -247.015625 C 270.257812 -244.390625 272.015625 -240.570312 272.015625 -235.5625 C 272.015625 -233.5625 271.632812 -231.429688 270.875 -229.171875 L 255.109375 -177.328125 C 253.347656 -171.316406 251.148438 -167.054688 248.515625 -164.546875 C 245.890625 -162.046875 241.945312 -160.796875 236.6875 -160.796875 C 231.175781 -160.796875 226.351562 -162.484375 222.21875 -165.859375 C 218.09375 -169.242188 211.644531 -176.195312 202.875 -186.71875 C 194.113281 -196.738281 186.160156 -203.816406 179.015625 -207.953125 C 171.878906 -212.085938 164.554688 -214.15625 157.046875 -214.15625 C 151.535156 -214.15625 146.898438 -212.335938 143.140625 -208.703125 C 139.378906 -205.066406 137.5 -200.617188 137.5 -195.359375 C 137.5 -189.347656 140.503906 -183.773438 146.515625 -178.640625 C 152.535156 -173.503906 161.929688 -167.054688 174.703125 -159.296875 C 187.722656 -151.535156 198.488281 -144.519531 207 -138.25 C 215.519531 -131.988281 222.785156 -124.222656 228.796875 -114.953125 C 234.804688 -105.691406 237.8125 -95.050781 237.8125 -83.03125 C 237.8125 -75.269531 236.5625 -67.503906 234.0625 -59.734375 C 228.050781 -39.703125 216.40625 -24.488281 199.125 -14.09375 C 181.84375 -3.695312 161.679688 1.5 138.640625 1.5 C 121.347656 1.5 106.816406 -0.5 95.046875 -4.5 C 83.273438 -8.507812 71.253906 -15.273438 58.984375 -24.796875 L 45.453125 -13.53125 C 39.191406 -8.269531 34.054688 -4.695312 30.046875 -2.8125 C 26.046875 -0.9375 21.539062 0 16.53125 0 C 10.769531 0 6.195312 -1.375 2.8125 -4.125 C -0.5625 -6.882812 -2.25 -10.644531 -2.25 -15.40625 C -2.25 -17.90625 -1.75 -20.535156 -0.75 -23.296875 L 17.65625 -79.265625 C 19.65625 -85.785156 22.410156 -90.421875 25.921875 -93.171875 C 29.429688 -95.929688 33.941406 -97.3125 39.453125 -97.3125 C 45.210938 -97.3125 50.40625 -95.304688 55.03125 -91.296875 C 59.664062 -87.285156 65.742188 -80.019531 73.265625 -69.5 C 81.273438 -57.976562 88.722656 -49.960938 95.609375 -45.453125 C 102.503906 -40.953125 110.707031 -38.703125 120.21875 -38.703125 C 126.988281 -38.703125 132.1875 -39.765625 135.8125 -41.890625 C 139.445312 -44.015625 142.015625 -47.457031 143.515625 -52.21875 C 144.015625 -53.46875 144.265625 -55.347656 144.265625 -57.859375 C 144.265625 -63.867188 141.382812 -69.378906 135.625 -74.390625 C 129.863281 -79.398438 120.972656 -85.410156 108.953125 -92.421875 C 96.179688 -100.179688 85.785156 -107.128906 77.765625 -113.265625 C 69.753906 -119.410156 62.804688 -127.113281 56.921875 -136.375 C 51.035156 -145.644531 48.09375 -156.539062 48.09375 -169.0625 C 48.09375 -177.832031 49.46875 -186.472656 52.21875 -194.984375 C 57.476562 -212.265625 68.25 -226.164062 84.53125 -236.6875 C 100.8125 -247.207031 119.472656 -252.46875 140.515625 -252.46875 Z M 140.515625 -252.46875 "/></g></g></g><g fill="#ffffff" fill-opacity="0.302"><g transform="translate(1152.64043, 367.504017)"><g><path d="M 140.515625 -252.46875 C 154.535156 -252.46875 167.492188 -250.773438 179.390625 -247.390625 C 191.296875 -244.015625 203.382812 -238.695312 215.65625 -231.4375 L 224.296875 -238.578125 C 230.304688 -243.328125 235.25 -246.578125 239.125 -248.328125 C 243.007812 -250.085938 247.457031 -250.96875 252.46875 -250.96875 C 258.476562 -250.96875 263.238281 -249.648438 266.75 -247.015625 C 270.257812 -244.390625 272.015625 -240.570312 272.015625 -235.5625 C 272.015625 -233.5625 271.632812 -231.429688 270.875 -229.171875 L 255.109375 -177.328125 C 253.347656 -171.316406 251.148438 -167.054688 248.515625 -164.546875 C 245.890625 -162.046875 241.945312 -160.796875 236.6875 -160.796875 C 231.175781 -160.796875 226.351562 -162.484375 222.21875 -165.859375 C 218.09375 -169.242188 211.644531 -176.195312 202.875 -186.71875 C 194.113281 -196.738281 186.160156 -203.816406 179.015625 -207.953125 C 171.878906 -212.085938 164.554688 -214.15625 157.046875 -214.15625 C 151.535156 -214.15625 146.898438 -212.335938 143.140625 -208.703125 C 139.378906 -205.066406 137.5 -200.617188 137.5 -195.359375 C 137.5 -189.347656 140.503906 -183.773438 146.515625 -178.640625 C 152.535156 -173.503906 161.929688 -167.054688 174.703125 -159.296875 C 187.722656 -151.535156 198.488281 -144.519531 207 -138.25 C 215.519531 -131.988281 222.785156 -124.222656 228.796875 -114.953125 C 234.804688 -105.691406 237.8125 -95.050781 237.8125 -83.03125 C 237.8125 -75.269531 236.5625 -67.503906 234.0625 -59.734375 C 228.050781 -39.703125 216.40625 -24.488281 199.125 -14.09375 C 181.84375 -3.695312 161.679688 1.5 138.640625 1.5 C 121.347656 1.5 106.816406 -0.5 95.046875 -4.5 C 83.273438 -8.507812 71.253906 -15.273438 58.984375 -24.796875 L 45.453125 -13.53125 C 39.191406 -8.269531 34.054688 -4.695312 30.046875 -2.8125 C 26.046875 -0.9375 21.539062 0 16.53125 0 C 10.769531 0 6.195312 -1.375 2.8125 -4.125 C -0.5625 -6.882812 -2.25 -10.644531 -2.25 -15.40625 C -2.25 -17.90625 -1.75 -20.535156 -0.75 -23.296875 L 17.65625 -79.265625 C 19.65625 -85.785156 22.410156 -90.421875 25.921875 -93.171875 C 29.429688 -95.929688 33.941406 -97.3125 39.453125 -97.3125 C 45.210938 -97.3125 50.40625 -95.304688 55.03125 -91.296875 C 59.664062 -87.285156 65.742188 -80.019531 73.265625 -69.5 C 81.273438 -57.976562 88.722656 -49.960938 95.609375 -45.453125 C 102.503906 -40.953125 110.707031 -38.703125 120.21875 -38.703125 C 126.988281 -38.703125 132.1875 -39.765625 135.8125 -41.890625 C 139.445312 -44.015625 142.015625 -47.457031 143.515625 -52.21875 C 144.015625 -53.46875 144.265625 -55.347656 144.265625 -57.859375 C 144.265625 -63.867188 141.382812 -69.378906 135.625 -74.390625 C 129.863281 -79.398438 120.972656 -85.410156 108.953125 -92.421875 C 96.179688 -100.179688 85.785156 -107.128906 77.765625 -113.265625 C 69.753906 -119.410156 62.804688 -127.113281 56.921875 -136.375 C 51.035156 -145.644531 48.09375 -156.539062 48.09375 -169.0625 C 48.09375 -177.832031 49.46875 -186.472656 52.21875 -194.984375 C 57.476562 -212.265625 68.25 -226.164062 84.53125 -236.6875 C 100.8125 -247.207031 119.472656 -252.46875 140.515625 -252.46875 Z M 140.515625 -252.46875 "/></g></g></g><g fill="#ffffff" fill-opacity="0.302"><g transform="translate(1411.492506, 367.504017)"><g><path d="M 215.28125 -96.9375 C 222.289062 -96.9375 227.609375 -95.492188 231.234375 -92.609375 C 234.867188 -89.734375 236.6875 -85.664062 236.6875 -80.40625 C 236.6875 -78.144531 236.3125 -75.640625 235.5625 -72.890625 L 223.171875 -28.921875 C 219.910156 -18.160156 215.335938 -10.648438 209.453125 -6.390625 C 203.566406 -2.128906 194.863281 0 183.34375 0 L 6.765625 0 C 1.503906 0 -2.5625 -0.875 -5.4375 -2.625 C -8.320312 -4.382812 -9.765625 -6.765625 -9.765625 -9.765625 C -9.765625 -11.265625 -9.390625 -12.894531 -8.640625 -14.65625 C -7.890625 -16.65625 -6.632812 -18.34375 -4.875 -19.71875 C -3.125 -21.101562 -1.25 -22.421875 0.75 -23.671875 C 4.757812 -26.171875 8.015625 -28.734375 10.515625 -31.359375 C 13.023438 -33.992188 15.15625 -38.316406 16.90625 -44.328125 L 62.75 -206.265625 C 63.75 -209.515625 64.25 -212.644531 64.25 -215.65625 C 64.25 -218.40625 63.804688 -220.71875 62.921875 -222.59375 C 62.046875 -224.476562 60.859375 -226.671875 59.359375 -229.171875 C 57.109375 -232.429688 55.984375 -235.0625 55.984375 -237.0625 C 55.984375 -237.820312 56.234375 -239.203125 56.734375 -241.203125 C 57.734375 -244.453125 59.921875 -246.765625 63.296875 -248.140625 C 66.679688 -249.523438 71.878906 -250.21875 78.890625 -250.21875 L 167.1875 -250.21875 C 172.445312 -250.21875 176.515625 -249.398438 179.390625 -247.765625 C 182.273438 -246.140625 183.71875 -243.828125 183.71875 -240.828125 C 183.71875 -239.578125 183.34375 -237.945312 182.59375 -235.9375 C 181.84375 -234.1875 180.773438 -232.617188 179.390625 -231.234375 C 178.015625 -229.859375 176.765625 -228.859375 175.640625 -228.234375 C 174.515625 -227.609375 173.703125 -227.046875 173.203125 -226.546875 C 169.191406 -224.296875 165.929688 -221.789062 163.421875 -219.03125 C 160.921875 -216.28125 158.796875 -212.023438 157.046875 -206.265625 L 108.578125 -36.0625 L 131.875 -36.0625 C 137.632812 -36.0625 142.578125 -37.0625 146.703125 -39.0625 C 150.835938 -41.070312 155.160156 -44.832031 159.671875 -50.34375 L 185.59375 -81.15625 C 190.351562 -86.664062 194.925781 -90.671875 199.3125 -93.171875 C 203.695312 -95.679688 209.019531 -96.9375 215.28125 -96.9375 Z M 215.28125 -96.9375 "/></g></g></g><g fill="#ffffff" fill-opacity="0.302"><g transform="translate(1656.068276, 367.504017)"><g><path d="M 245.328125 -250.21875 C 254.597656 -250.21875 261.800781 -248.210938 266.9375 -244.203125 C 272.070312 -240.203125 274.640625 -234.691406 274.640625 -227.671875 C 274.640625 -224.171875 274.140625 -220.789062 273.140625 -217.53125 L 263.375 -182.59375 C 261.613281 -175.832031 259.039062 -171.132812 255.65625 -168.5 C 252.28125 -165.875 247.460938 -164.5625 241.203125 -164.5625 C 235.191406 -164.5625 230.492188 -165.875 227.109375 -168.5 C 223.734375 -171.132812 221.164062 -175.457031 219.40625 -181.46875 L 213.40625 -202.875 C 212.144531 -207.382812 210.640625 -210.390625 208.890625 -211.890625 C 207.140625 -213.398438 203.757812 -214.15625 198.75 -214.15625 L 159.296875 -214.15625 L 140.515625 -147.28125 L 157.046875 -147.28125 C 158.796875 -147.28125 161.175781 -148.53125 164.1875 -151.03125 L 176.953125 -162.296875 C 180.710938 -165.554688 183.96875 -167.9375 186.71875 -169.4375 C 189.476562 -170.945312 192.863281 -171.703125 196.875 -171.703125 C 201.375 -171.703125 205.0625 -170.507812 207.9375 -168.125 C 210.820312 -165.75 212.265625 -162.679688 212.265625 -158.921875 C 212.265625 -157.921875 212.015625 -156.414062 211.515625 -154.40625 L 196.109375 -102.1875 C 194.609375 -96.675781 192.039062 -92.601562 188.40625 -89.96875 C 184.78125 -87.34375 180.835938 -86.03125 176.578125 -86.03125 C 169.566406 -86.03125 164.304688 -89.664062 160.796875 -96.9375 L 154.40625 -110.078125 C 152.65625 -113.835938 149.90625 -115.71875 146.15625 -115.71875 L 131.5 -115.71875 L 109.328125 -36.0625 L 142.390625 -36.0625 C 147.148438 -36.0625 151.34375 -37 154.96875 -38.875 C 158.601562 -40.757812 162.550781 -44.082031 166.8125 -48.84375 L 189.359375 -73.640625 C 193.359375 -77.898438 197.175781 -80.96875 200.8125 -82.84375 C 204.445312 -84.71875 208.894531 -85.65625 214.15625 -85.65625 C 219.664062 -85.65625 224.171875 -84.398438 227.671875 -81.890625 C 231.179688 -79.390625 232.9375 -75.632812 232.9375 -70.625 C 232.9375 -68.625 232.5625 -66.25 231.8125 -63.5 L 220.90625 -25.546875 C 218.15625 -16.023438 214.148438 -9.382812 208.890625 -5.625 C 203.628906 -1.875 195.988281 0 185.96875 0 L 6.765625 0 C 1.503906 0 -2.5625 -0.875 -5.4375 -2.625 C -8.320312 -4.382812 -9.765625 -6.765625 -9.765625 -9.765625 C -9.765625 -11.265625 -9.390625 -12.894531 -8.640625 -14.65625 C -7.640625 -17.40625 -6.007812 -19.53125 -3.75 -21.03125 C -1.5 -22.539062 -0.125 -23.421875 0.375 -23.671875 C 4.382812 -26.171875 7.640625 -28.734375 10.140625 -31.359375 C 12.648438 -33.992188 14.78125 -38.316406 16.53125 -44.328125 L 62.75 -206.265625 C 63.75 -209.515625 64.25 -212.519531 64.25 -215.28125 C 64.25 -218.28125 63.804688 -220.78125 62.921875 -222.78125 C 62.046875 -224.789062 60.734375 -226.921875 58.984375 -229.171875 C 56.734375 -232.429688 55.609375 -235.0625 55.609375 -237.0625 C 55.609375 -237.820312 55.859375 -239.203125 56.359375 -241.203125 C 57.359375 -244.453125 59.609375 -246.765625 63.109375 -248.140625 C 66.617188 -249.523438 71.753906 -250.21875 78.515625 -250.21875 Z M 245.328125 -250.21875 "/></g></g></g><g fill="#ffffff" fill-opacity="0.502"><g transform="translate(44.649698, 350.899513)"><g><path d="M 111.203125 2.25 C 94.421875 2.25 79.203125 -1.441406 65.546875 -8.828125 C 51.898438 -16.210938 41.070312 -27.109375 33.0625 -41.515625 C 25.050781 -55.921875 21.046875 -73.140625 21.046875 -93.171875 C 21.046875 -108.453125 23.671875 -125.484375 28.921875 -144.265625 C 40.453125 -184.335938 58.550781 -212.640625 83.21875 -229.171875 C 107.882812 -245.703125 134.242188 -253.96875 162.296875 -253.96875 C 187.847656 -253.96875 210.894531 -244.703125 231.4375 -226.171875 L 242.703125 -237.0625 C 248.960938 -242.320312 254.347656 -245.953125 258.859375 -247.953125 C 263.367188 -249.960938 268.628906 -250.96875 274.640625 -250.96875 C 281.148438 -250.96875 286.410156 -249.398438 290.421875 -246.265625 C 294.429688 -243.140625 296.4375 -238.945312 296.4375 -233.6875 C 296.4375 -231.6875 296.054688 -229.304688 295.296875 -226.546875 L 281.78125 -179.203125 C 279.269531 -171.191406 276.320312 -165.554688 272.9375 -162.296875 C 269.5625 -159.046875 264.992188 -157.421875 259.234375 -157.421875 C 253.222656 -157.421875 247.898438 -158.921875 243.265625 -161.921875 C 238.628906 -164.929688 233.304688 -170.316406 227.296875 -178.078125 C 219.285156 -188.597656 212.210938 -196.050781 206.078125 -200.4375 C 199.941406 -204.820312 193.238281 -207.015625 185.96875 -207.015625 C 174.695312 -207.015625 163.988281 -201.316406 153.84375 -189.921875 C 143.707031 -178.523438 134.878906 -159.550781 127.359375 -133 C 122.597656 -115.71875 120.21875 -100.816406 120.21875 -88.296875 C 120.21875 -75.015625 122.785156 -64.929688 127.921875 -58.046875 C 133.054688 -51.160156 140.257812 -47.71875 149.53125 -47.71875 C 157.539062 -47.71875 163.738281 -49.59375 168.125 -53.34375 C 172.507812 -57.101562 175.953125 -63.617188 178.453125 -72.890625 L 181.09375 -82.28125 C 182.34375 -87.289062 182.96875 -90.671875 182.96875 -92.421875 C 182.96875 -95.429688 182.273438 -97.5625 180.890625 -98.8125 C 179.515625 -100.0625 177.203125 -101.4375 173.953125 -102.9375 L 160.796875 -107.828125 C 155.035156 -110.078125 152.15625 -114.207031 152.15625 -120.21875 C 152.15625 -121.976562 152.28125 -123.359375 152.53125 -124.359375 C 153.53125 -127.609375 155.34375 -129.984375 157.96875 -131.484375 C 160.601562 -132.992188 164.675781 -133.75 170.1875 -133.75 L 283.65625 -133.375 C 291.914062 -133.375 296.046875 -130.742188 296.046875 -125.484375 C 296.046875 -124.484375 295.796875 -122.976562 295.296875 -120.96875 C 294.296875 -117.21875 292.664062 -114.210938 290.40625 -111.953125 C 288.15625 -109.703125 284.90625 -107.453125 280.65625 -105.203125 L 270.875 -99.5625 C 268.375 -98.0625 266.5 -96.617188 265.25 -95.234375 C 264 -93.859375 263.117188 -92.171875 262.609375 -90.171875 L 242.703125 -20.65625 C 240.203125 -12.394531 237.382812 -6.882812 234.25 -4.125 C 231.113281 -1.375 227.296875 0 222.796875 0 L 207.015625 0 C 201.003906 0 196.054688 -1.25 192.171875 -3.75 C 188.285156 -6.257812 185.09375 -11.144531 182.59375 -18.40625 L 178.828125 -29.3125 C 160.796875 -8.269531 138.253906 2.25 111.203125 2.25 Z M 111.203125 2.25 "/></g></g></g><g fill="#ffffff" fill-opacity="0.502"><g transform="translate(329.048806, 350.899513)"><g><path d="M 229.546875 -199.5 C 234.304688 -216.78125 241.003906 -229.800781 249.640625 -238.5625 C 258.285156 -247.332031 270.25 -251.71875 285.53125 -251.71875 C 297.550781 -251.71875 307.191406 -247.894531 314.453125 -240.25 C 321.722656 -232.613281 325.359375 -223.160156 325.359375 -211.890625 C 325.359375 -208.140625 324.734375 -203.757812 323.484375 -198.75 C 320.722656 -187.726562 315.835938 -179.773438 308.828125 -174.890625 C 301.816406 -170.003906 294.175781 -167.5625 285.90625 -167.5625 C 281.644531 -167.5625 277.820312 -167.875 274.4375 -168.5 C 271.0625 -169.125 267.875 -169.9375 264.875 -170.9375 L 242.703125 -89.421875 C 234.691406 -59.609375 221.289062 -36.875 202.5 -21.21875 C 183.71875 -5.570312 158.171875 2.25 125.859375 2.25 C 96.304688 2.25 73.328125 -3.382812 56.921875 -14.65625 C 40.515625 -25.925781 32.3125 -43.457031 32.3125 -67.25 C 32.3125 -78.769531 34.316406 -91.421875 38.328125 -105.203125 L 66.875 -206.265625 C 67.875 -209.515625 68.375 -212.644531 68.375 -215.65625 C 68.375 -218.65625 67.9375 -221.09375 67.0625 -222.96875 C 66.1875 -224.851562 65 -227.046875 63.5 -229.546875 C 61.238281 -232.804688 60.109375 -235.4375 60.109375 -237.4375 C 60.109375 -238.445312 60.359375 -239.703125 60.859375 -241.203125 C 61.859375 -244.453125 64.113281 -246.765625 67.625 -248.140625 C 71.132812 -249.523438 76.269531 -250.21875 83.03125 -250.21875 L 171.328125 -250.21875 C 182.085938 -250.21875 187.46875 -246.960938 187.46875 -240.453125 C 187.46875 -238.953125 187.34375 -237.695312 187.09375 -236.6875 C 186.34375 -234.4375 185.28125 -232.617188 183.90625 -231.234375 C 182.53125 -229.859375 180.460938 -228.296875 177.703125 -226.546875 C 173.703125 -224.296875 170.445312 -221.789062 167.9375 -219.03125 C 165.4375 -216.28125 163.304688 -212.023438 161.546875 -206.265625 L 128.859375 -91.296875 C 126.609375 -82.773438 125.484375 -75.507812 125.484375 -69.5 C 125.484375 -52.71875 134.5 -44.328125 152.53125 -44.328125 C 163.550781 -44.328125 172.753906 -47.894531 180.140625 -55.03125 C 187.535156 -62.175781 193.738281 -74.390625 198.75 -91.671875 Z M 229.546875 -199.5 "/></g></g></g><g fill="#ffffff" fill-opacity="0.502"><g transform="translate(625.094369, 350.899513)"><g><path d="M 245.328125 -250.21875 C 254.597656 -250.21875 261.800781 -248.210938 266.9375 -244.203125 C 272.070312 -240.203125 274.640625 -234.691406 274.640625 -227.671875 C 274.640625 -224.171875 274.140625 -220.789062 273.140625 -217.53125 L 263.375 -182.59375 C 261.613281 -175.832031 259.039062 -171.132812 255.65625 -168.5 C 252.28125 -165.875 247.460938 -164.5625 241.203125 -164.5625 C 235.191406 -164.5625 230.492188 -165.875 227.109375 -168.5 C 223.734375 -171.132812 221.164062 -175.457031 219.40625 -181.46875 L 213.40625 -202.875 C 212.144531 -207.382812 210.640625 -210.390625 208.890625 -211.890625 C 207.140625 -213.398438 203.757812 -214.15625 198.75 -214.15625 L 159.296875 -214.15625 L 140.515625 -147.28125 L 157.046875 -147.28125 C 158.796875 -147.28125 161.175781 -148.53125 164.1875 -151.03125 L 176.953125 -162.296875 C 180.710938 -165.554688 183.96875 -167.9375 186.71875 -169.4375 C 189.476562 -170.945312 192.863281 -171.703125 196.875 -171.703125 C 201.375 -171.703125 205.0625 -170.507812 207.9375 -168.125 C 210.820312 -165.75 212.265625 -162.679688 212.265625 -158.921875 C 212.265625 -157.921875 212.015625 -156.414062 211.515625 -154.40625 L 196.109375 -102.1875 C 194.609375 -96.675781 192.039062 -92.601562 188.40625 -89.96875 C 184.78125 -87.34375 180.835938 -86.03125 176.578125 -86.03125 C 169.566406 -86.03125 164.304688 -89.664062 160.796875 -96.9375 L 154.40625 -110.078125 C 152.65625 -113.835938 149.90625 -115.71875 146.15625 -115.71875 L 131.5 -115.71875 L 109.328125 -36.0625 L 142.390625 -36.0625 C 147.148438 -36.0625 151.34375 -37 154.96875 -38.875 C 158.601562 -40.757812 162.550781 -44.082031 166.8125 -48.84375 L 189.359375 -73.640625 C 193.359375 -77.898438 197.175781 -80.96875 200.8125 -82.84375 C 204.445312 -84.71875 208.894531 -85.65625 214.15625 -85.65625 C 219.664062 -85.65625 224.171875 -84.398438 227.671875 -81.890625 C 231.179688 -79.390625 232.9375 -75.632812 232.9375 -70.625 C 232.9375 -68.625 232.5625 -66.25 231.8125 -63.5 L 220.90625 -25.546875 C 218.15625 -16.023438 214.148438 -9.382812 208.890625 -5.625 C 203.628906 -1.875 195.988281 0 185.96875 0 L 6.765625 0 C 1.503906 0 -2.5625 -0.875 -5.4375 -2.625 C -8.320312 -4.382812 -9.765625 -6.765625 -9.765625 -9.765625 C -9.765625 -11.265625 -9.390625 -12.894531 -8.640625 -14.65625 C -7.640625 -17.40625 -6.007812 -19.53125 -3.75 -21.03125 C -1.5 -22.539062 -0.125 -23.421875 0.375 -23.671875 C 4.382812 -26.171875 7.640625 -28.734375 10.140625 -31.359375 C 12.648438 -33.992188 14.78125 -38.316406 16.53125 -44.328125 L 62.75 -206.265625 C 63.75 -209.515625 64.25 -212.519531 64.25 -215.28125 C 64.25 -218.28125 63.804688 -220.78125 62.921875 -222.78125 C 62.046875 -224.789062 60.734375 -226.921875 58.984375 -229.171875 C 56.734375 -232.429688 55.609375 -235.0625 55.609375 -237.0625 C 55.609375 -237.820312 55.859375 -239.203125 56.359375 -241.203125 C 57.359375 -244.453125 59.609375 -246.765625 63.109375 -248.140625 C 66.617188 -249.523438 71.753906 -250.21875 78.515625 -250.21875 Z M 245.328125 -250.21875 "/></g></g></g><g fill="#ffffff" fill-opacity="0.502"><g transform="translate(877.18392, 350.899513)"><g><path d="M 140.515625 -252.46875 C 154.535156 -252.46875 167.492188 -250.773438 179.390625 -247.390625 C 191.296875 -244.015625 203.382812 -238.695312 215.65625 -231.4375 L 224.296875 -238.578125 C 230.304688 -243.328125 235.25 -246.578125 239.125 -248.328125 C 243.007812 -250.085938 247.457031 -250.96875 252.46875 -250.96875 C 258.476562 -250.96875 263.238281 -249.648438 266.75 -247.015625 C 270.257812 -244.390625 272.015625 -240.570312 272.015625 -235.5625 C 272.015625 -233.5625 271.632812 -231.429688 270.875 -229.171875 L 255.109375 -177.328125 C 253.347656 -171.316406 251.148438 -167.054688 248.515625 -164.546875 C 245.890625 -162.046875 241.945312 -160.796875 236.6875 -160.796875 C 231.175781 -160.796875 226.351562 -162.484375 222.21875 -165.859375 C 218.09375 -169.242188 211.644531 -176.195312 202.875 -186.71875 C 194.113281 -196.738281 186.160156 -203.816406 179.015625 -207.953125 C 171.878906 -212.085938 164.554688 -214.15625 157.046875 -214.15625 C 151.535156 -214.15625 146.898438 -212.335938 143.140625 -208.703125 C 139.378906 -205.066406 137.5 -200.617188 137.5 -195.359375 C 137.5 -189.347656 140.503906 -183.773438 146.515625 -178.640625 C 152.535156 -173.503906 161.929688 -167.054688 174.703125 -159.296875 C 187.722656 -151.535156 198.488281 -144.519531 207 -138.25 C 215.519531 -131.988281 222.785156 -124.222656 228.796875 -114.953125 C 234.804688 -105.691406 237.8125 -95.050781 237.8125 -83.03125 C 237.8125 -75.269531 236.5625 -67.503906 234.0625 -59.734375 C 228.050781 -39.703125 216.40625 -24.488281 199.125 -14.09375 C 181.84375 -3.695312 161.679688 1.5 138.640625 1.5 C 121.347656 1.5 106.816406 -0.5 95.046875 -4.5 C 83.273438 -8.507812 71.253906 -15.273438 58.984375 -24.796875 L 45.453125 -13.53125 C 39.191406 -8.269531 34.054688 -4.695312 30.046875 -2.8125 C 26.046875 -0.9375 21.539062 0 16.53125 0 C 10.769531 0 6.195312 -1.375 2.8125 -4.125 C -0.5625 -6.882812 -2.25 -10.644531 -2.25 -15.40625 C -2.25 -17.90625 -1.75 -20.535156 -0.75 -23.296875 L 17.65625 -79.265625 C 19.65625 -85.785156 22.410156 -90.421875 25.921875 -93.171875 C 29.429688 -95.929688 33.941406 -97.3125 39.453125 -97.3125 C 45.210938 -97.3125 50.40625 -95.304688 55.03125 -91.296875 C 59.664062 -87.285156 65.742188 -80.019531 73.265625 -69.5 C 81.273438 -57.976562 88.722656 -49.960938 95.609375 -45.453125 C 102.503906 -40.953125 110.707031 -38.703125 120.21875 -38.703125 C 126.988281 -38.703125 132.1875 -39.765625 135.8125 -41.890625 C 139.445312 -44.015625 142.015625 -47.457031 143.515625 -52.21875 C 144.015625 -53.46875 144.265625 -55.347656 144.265625 -57.859375 C 144.265625 -63.867188 141.382812 -69.378906 135.625 -74.390625 C 129.863281 -79.398438 120.972656 -85.410156 108.953125 -92.421875 C 96.179688 -100.179688 85.785156 -107.128906 77.765625 -113.265625 C 69.753906 -119.410156 62.804688 -127.113281 56.921875 -136.375 C 51.035156 -145.644531 48.09375 -156.539062 48.09375 -169.0625 C 48.09375 -177.832031 49.46875 -186.472656 52.21875 -194.984375 C 57.476562 -212.265625 68.25 -226.164062 84.53125 -236.6875 C 100.8125 -247.207031 119.472656 -252.46875 140.515625 -252.46875 Z M 140.515625 -252.46875 "/></g></g></g><g fill="#ffffff" fill-opacity="0.502"><g transform="translate(1136.035925, 350.899513)"><g><path d="M 140.515625 -252.46875 C 154.535156 -252.46875 167.492188 -250.773438 179.390625 -247.390625 C 191.296875 -244.015625 203.382812 -238.695312 215.65625 -231.4375 L 224.296875 -238.578125 C 230.304688 -243.328125 235.25 -246.578125 239.125 -248.328125 C 243.007812 -250.085938 247.457031 -250.96875 252.46875 -250.96875 C 258.476562 -250.96875 263.238281 -249.648438 266.75 -247.015625 C 270.257812 -244.390625 272.015625 -240.570312 272.015625 -235.5625 C 272.015625 -233.5625 271.632812 -231.429688 270.875 -229.171875 L 255.109375 -177.328125 C 253.347656 -171.316406 251.148438 -167.054688 248.515625 -164.546875 C 245.890625 -162.046875 241.945312 -160.796875 236.6875 -160.796875 C 231.175781 -160.796875 226.351562 -162.484375 222.21875 -165.859375 C 218.09375 -169.242188 211.644531 -176.195312 202.875 -186.71875 C 194.113281 -196.738281 186.160156 -203.816406 179.015625 -207.953125 C 171.878906 -212.085938 164.554688 -214.15625 157.046875 -214.15625 C 151.535156 -214.15625 146.898438 -212.335938 143.140625 -208.703125 C 139.378906 -205.066406 137.5 -200.617188 137.5 -195.359375 C 137.5 -189.347656 140.503906 -183.773438 146.515625 -178.640625 C 152.535156 -173.503906 161.929688 -167.054688 174.703125 -159.296875 C 187.722656 -151.535156 198.488281 -144.519531 207 -138.25 C 215.519531 -131.988281 222.785156 -124.222656 228.796875 -114.953125 C 234.804688 -105.691406 237.8125 -95.050781 237.8125 -83.03125 C 237.8125 -75.269531 236.5625 -67.503906 234.0625 -59.734375 C 228.050781 -39.703125 216.40625 -24.488281 199.125 -14.09375 C 181.84375 -3.695312 161.679688 1.5 138.640625 1.5 C 121.347656 1.5 106.816406 -0.5 95.046875 -4.5 C 83.273438 -8.507812 71.253906 -15.273438 58.984375 -24.796875 L 45.453125 -13.53125 C 39.191406 -8.269531 34.054688 -4.695312 30.046875 -2.8125 C 26.046875 -0.9375 21.539062 0 16.53125 0 C 10.769531 0 6.195312 -1.375 2.8125 -4.125 C -0.5625 -6.882812 -2.25 -10.644531 -2.25 -15.40625 C -2.25 -17.90625 -1.75 -20.535156 -0.75 -23.296875 L 17.65625 -79.265625 C 19.65625 -85.785156 22.410156 -90.421875 25.921875 -93.171875 C 29.429688 -95.929688 33.941406 -97.3125 39.453125 -97.3125 C 45.210938 -97.3125 50.40625 -95.304688 55.03125 -91.296875 C 59.664062 -87.285156 65.742188 -80.019531 73.265625 -69.5 C 81.273438 -57.976562 88.722656 -49.960938 95.609375 -45.453125 C 102.503906 -40.953125 110.707031 -38.703125 120.21875 -38.703125 C 126.988281 -38.703125 132.1875 -39.765625 135.8125 -41.890625 C 139.445312 -44.015625 142.015625 -47.457031 143.515625 -52.21875 C 144.015625 -53.46875 144.265625 -55.347656 144.265625 -57.859375 C 144.265625 -63.867188 141.382812 -69.378906 135.625 -74.390625 C 129.863281 -79.398438 120.972656 -85.410156 108.953125 -92.421875 C 96.179688 -100.179688 85.785156 -107.128906 77.765625 -113.265625 C 69.753906 -119.410156 62.804688 -127.113281 56.921875 -136.375 C 51.035156 -145.644531 48.09375 -156.539062 48.09375 -169.0625 C 48.09375 -177.832031 49.46875 -186.472656 52.21875 -194.984375 C 57.476562 -212.265625 68.25 -226.164062 84.53125 -236.6875 C 100.8125 -247.207031 119.472656 -252.46875 140.515625 -252.46875 Z M 140.515625 -252.46875 "/></g></g></g><g fill="#ffffff" fill-opacity="0.502"><g transform="translate(1394.888002, 350.899513)"><g><path d="M 215.28125 -96.9375 C 222.289062 -96.9375 227.609375 -95.492188 231.234375 -92.609375 C 234.867188 -89.734375 236.6875 -85.664062 236.6875 -80.40625 C 236.6875 -78.144531 236.3125 -75.640625 235.5625 -72.890625 L 223.171875 -28.921875 C 219.910156 -18.160156 215.335938 -10.648438 209.453125 -6.390625 C 203.566406 -2.128906 194.863281 0 183.34375 0 L 6.765625 0 C 1.503906 0 -2.5625 -0.875 -5.4375 -2.625 C -8.320312 -4.382812 -9.765625 -6.765625 -9.765625 -9.765625 C -9.765625 -11.265625 -9.390625 -12.894531 -8.640625 -14.65625 C -7.890625 -16.65625 -6.632812 -18.34375 -4.875 -19.71875 C -3.125 -21.101562 -1.25 -22.421875 0.75 -23.671875 C 4.757812 -26.171875 8.015625 -28.734375 10.515625 -31.359375 C 13.023438 -33.992188 15.15625 -38.316406 16.90625 -44.328125 L 62.75 -206.265625 C 63.75 -209.515625 64.25 -212.644531 64.25 -215.65625 C 64.25 -218.40625 63.804688 -220.71875 62.921875 -222.59375 C 62.046875 -224.476562 60.859375 -226.671875 59.359375 -229.171875 C 57.109375 -232.429688 55.984375 -235.0625 55.984375 -237.0625 C 55.984375 -237.820312 56.234375 -239.203125 56.734375 -241.203125 C 57.734375 -244.453125 59.921875 -246.765625 63.296875 -248.140625 C 66.679688 -249.523438 71.878906 -250.21875 78.890625 -250.21875 L 167.1875 -250.21875 C 172.445312 -250.21875 176.515625 -249.398438 179.390625 -247.765625 C 182.273438 -246.140625 183.71875 -243.828125 183.71875 -240.828125 C 183.71875 -239.578125 183.34375 -237.945312 182.59375 -235.9375 C 181.84375 -234.1875 180.773438 -232.617188 179.390625 -231.234375 C 178.015625 -229.859375 176.765625 -228.859375 175.640625 -228.234375 C 174.515625 -227.609375 173.703125 -227.046875 173.203125 -226.546875 C 169.191406 -224.296875 165.929688 -221.789062 163.421875 -219.03125 C 160.921875 -216.28125 158.796875 -212.023438 157.046875 -206.265625 L 108.578125 -36.0625 L 131.875 -36.0625 C 137.632812 -36.0625 142.578125 -37.0625 146.703125 -39.0625 C 150.835938 -41.070312 155.160156 -44.832031 159.671875 -50.34375 L 185.59375 -81.15625 C 190.351562 -86.664062 194.925781 -90.671875 199.3125 -93.171875 C 203.695312 -95.679688 209.019531 -96.9375 215.28125 -96.9375 Z M 215.28125 -96.9375 "/></g></g></g><g fill="#ffffff" fill-opacity="0.502"><g transform="translate(1639.463772, 350.899513)"><g><path d="M 245.328125 -250.21875 C 254.597656 -250.21875 261.800781 -248.210938 266.9375 -244.203125 C 272.070312 -240.203125 274.640625 -234.691406 274.640625 -227.671875 C 274.640625 -224.171875 274.140625 -220.789062 273.140625 -217.53125 L 263.375 -182.59375 C 261.613281 -175.832031 259.039062 -171.132812 255.65625 -168.5 C 252.28125 -165.875 247.460938 -164.5625 241.203125 -164.5625 C 235.191406 -164.5625 230.492188 -165.875 227.109375 -168.5 C 223.734375 -171.132812 221.164062 -175.457031 219.40625 -181.46875 L 213.40625 -202.875 C 212.144531 -207.382812 210.640625 -210.390625 208.890625 -211.890625 C 207.140625 -213.398438 203.757812 -214.15625 198.75 -214.15625 L 159.296875 -214.15625 L 140.515625 -147.28125 L 157.046875 -147.28125 C 158.796875 -147.28125 161.175781 -148.53125 164.1875 -151.03125 L 176.953125 -162.296875 C 180.710938 -165.554688 183.96875 -167.9375 186.71875 -169.4375 C 189.476562 -170.945312 192.863281 -171.703125 196.875 -171.703125 C 201.375 -171.703125 205.0625 -170.507812 207.9375 -168.125 C 210.820312 -165.75 212.265625 -162.679688 212.265625 -158.921875 C 212.265625 -157.921875 212.015625 -156.414062 211.515625 -154.40625 L 196.109375 -102.1875 C 194.609375 -96.675781 192.039062 -92.601562 188.40625 -89.96875 C 184.78125 -87.34375 180.835938 -86.03125 176.578125 -86.03125 C 169.566406 -86.03125 164.304688 -89.664062 160.796875 -96.9375 L 154.40625 -110.078125 C 152.65625 -113.835938 149.90625 -115.71875 146.15625 -115.71875 L 131.5 -115.71875 L 109.328125 -36.0625 L 142.390625 -36.0625 C 147.148438 -36.0625 151.34375 -37 154.96875 -38.875 C 158.601562 -40.757812 162.550781 -44.082031 166.8125 -48.84375 L 189.359375 -73.640625 C 193.359375 -77.898438 197.175781 -80.96875 200.8125 -82.84375 C 204.445312 -84.71875 208.894531 -85.65625 214.15625 -85.65625 C 219.664062 -85.65625 224.171875 -84.398438 227.671875 -81.890625 C 231.179688 -79.390625 232.9375 -75.632812 232.9375 -70.625 C 232.9375 -68.625 232.5625 -66.25 231.8125 -63.5 L 220.90625 -25.546875 C 218.15625 -16.023438 214.148438 -9.382812 208.890625 -5.625 C 203.628906 -1.875 195.988281 0 185.96875 0 L 6.765625 0 C 1.503906 0 -2.5625 -0.875 -5.4375 -2.625 C -8.320312 -4.382812 -9.765625 -6.765625 -9.765625 -9.765625 C -9.765625 -11.265625 -9.390625 -12.894531 -8.640625 -14.65625 C -7.640625 -17.40625 -6.007812 -19.53125 -3.75 -21.03125 C -1.5 -22.539062 -0.125 -23.421875 0.375 -23.671875 C 4.382812 -26.171875 7.640625 -28.734375 10.140625 -31.359375 C 12.648438 -33.992188 14.78125 -38.316406 16.53125 -44.328125 L 62.75 -206.265625 C 63.75 -209.515625 64.25 -212.519531 64.25 -215.28125 C 64.25 -218.28125 63.804688 -220.78125 62.921875 -222.78125 C 62.046875 -224.789062 60.734375 -226.921875 58.984375 -229.171875 C 56.734375 -232.429688 55.609375 -235.0625 55.609375 -237.0625 C 55.609375 -237.820312 55.859375 -239.203125 56.359375 -241.203125 C 57.359375 -244.453125 59.609375 -246.765625 63.109375 -248.140625 C 66.617188 -249.523438 71.753906 -250.21875 78.515625 -250.21875 Z M 245.328125 -250.21875 "/></g></g></g><g fill="#ffffff" fill-opacity="1"><g transform="translate(28.045195, 334.295009)"><g><path d="M 111.203125 2.25 C 94.421875 2.25 79.203125 -1.441406 65.546875 -8.828125 C 51.898438 -16.210938 41.070312 -27.109375 33.0625 -41.515625 C 25.050781 -55.921875 21.046875 -73.140625 21.046875 -93.171875 C 21.046875 -108.453125 23.671875 -125.484375 28.921875 -144.265625 C 40.453125 -184.335938 58.550781 -212.640625 83.21875 -229.171875 C 107.882812 -245.703125 134.242188 -253.96875 162.296875 -253.96875 C 187.847656 -253.96875 210.894531 -244.703125 231.4375 -226.171875 L 242.703125 -237.0625 C 248.960938 -242.320312 254.347656 -245.953125 258.859375 -247.953125 C 263.367188 -249.960938 268.628906 -250.96875 274.640625 -250.96875 C 281.148438 -250.96875 286.410156 -249.398438 290.421875 -246.265625 C 294.429688 -243.140625 296.4375 -238.945312 296.4375 -233.6875 C 296.4375 -231.6875 296.054688 -229.304688 295.296875 -226.546875 L 281.78125 -179.203125 C 279.269531 -171.191406 276.320312 -165.554688 272.9375 -162.296875 C 269.5625 -159.046875 264.992188 -157.421875 259.234375 -157.421875 C 253.222656 -157.421875 247.898438 -158.921875 243.265625 -161.921875 C 238.628906 -164.929688 233.304688 -170.316406 227.296875 -178.078125 C 219.285156 -188.597656 212.210938 -196.050781 206.078125 -200.4375 C 199.941406 -204.820312 193.238281 -207.015625 185.96875 -207.015625 C 174.695312 -207.015625 163.988281 -201.316406 153.84375 -189.921875 C 143.707031 -178.523438 134.878906 -159.550781 127.359375 -133 C 122.597656 -115.71875 120.21875 -100.816406 120.21875 -88.296875 C 120.21875 -75.015625 122.785156 -64.929688 127.921875 -58.046875 C 133.054688 -51.160156 140.257812 -47.71875 149.53125 -47.71875 C 157.539062 -47.71875 163.738281 -49.59375 168.125 -53.34375 C 172.507812 -57.101562 175.953125 -63.617188 178.453125 -72.890625 L 181.09375 -82.28125 C 182.34375 -87.289062 182.96875 -90.671875 182.96875 -92.421875 C 182.96875 -95.429688 182.273438 -97.5625 180.890625 -98.8125 C 179.515625 -100.0625 177.203125 -101.4375 173.953125 -102.9375 L 160.796875 -107.828125 C 155.035156 -110.078125 152.15625 -114.207031 152.15625 -120.21875 C 152.15625 -121.976562 152.28125 -123.359375 152.53125 -124.359375 C 153.53125 -127.609375 155.34375 -129.984375 157.96875 -131.484375 C 160.601562 -132.992188 164.675781 -133.75 170.1875 -133.75 L 283.65625 -133.375 C 291.914062 -133.375 296.046875 -130.742188 296.046875 -125.484375 C 296.046875 -124.484375 295.796875 -122.976562 295.296875 -120.96875 C 294.296875 -117.21875 292.664062 -114.210938 290.40625 -111.953125 C 288.15625 -109.703125 284.90625 -107.453125 280.65625 -105.203125 L 270.875 -99.5625 C 268.375 -98.0625 266.5 -96.617188 265.25 -95.234375 C 264 -93.859375 263.117188 -92.171875 262.609375 -90.171875 L 242.703125 -20.65625 C 240.203125 -12.394531 237.382812 -6.882812 234.25 -4.125 C 231.113281 -1.375 227.296875 0 222.796875 0 L 207.015625 0 C 201.003906 0 196.054688 -1.25 192.171875 -3.75 C 188.285156 -6.257812 185.09375 -11.144531 182.59375 -18.40625 L 178.828125 -29.3125 C 160.796875 -8.269531 138.253906 2.25 111.203125 2.25 Z M 111.203125 2.25 "/></g></g></g><g fill="#ffffff" fill-opacity="1"><g transform="translate(312.444302, 334.295009)"><g><path d="M 229.546875 -199.5 C 234.304688 -216.78125 241.003906 -229.800781 249.640625 -238.5625 C 258.285156 -247.332031 270.25 -251.71875 285.53125 -251.71875 C 297.550781 -251.71875 307.191406 -247.894531 314.453125 -240.25 C 321.722656 -232.613281 325.359375 -223.160156 325.359375 -211.890625 C 325.359375 -208.140625 324.734375 -203.757812 323.484375 -198.75 C 320.722656 -187.726562 315.835938 -179.773438 308.828125 -174.890625 C 301.816406 -170.003906 294.175781 -167.5625 285.90625 -167.5625 C 281.644531 -167.5625 277.820312 -167.875 274.4375 -168.5 C 271.0625 -169.125 267.875 -169.9375 264.875 -170.9375 L 242.703125 -89.421875 C 234.691406 -59.609375 221.289062 -36.875 202.5 -21.21875 C 183.71875 -5.570312 158.171875 2.25 125.859375 2.25 C 96.304688 2.25 73.328125 -3.382812 56.921875 -14.65625 C 40.515625 -25.925781 32.3125 -43.457031 32.3125 -67.25 C 32.3125 -78.769531 34.316406 -91.421875 38.328125 -105.203125 L 66.875 -206.265625 C 67.875 -209.515625 68.375 -212.644531 68.375 -215.65625 C 68.375 -218.65625 67.9375 -221.09375 67.0625 -222.96875 C 66.1875 -224.851562 65 -227.046875 63.5 -229.546875 C 61.238281 -232.804688 60.109375 -235.4375 60.109375 -237.4375 C 60.109375 -238.445312 60.359375 -239.703125 60.859375 -241.203125 C 61.859375 -244.453125 64.113281 -246.765625 67.625 -248.140625 C 71.132812 -249.523438 76.269531 -250.21875 83.03125 -250.21875 L 171.328125 -250.21875 C 182.085938 -250.21875 187.46875 -246.960938 187.46875 -240.453125 C 187.46875 -238.953125 187.34375 -237.695312 187.09375 -236.6875 C 186.34375 -234.4375 185.28125 -232.617188 183.90625 -231.234375 C 182.53125 -229.859375 180.460938 -228.296875 177.703125 -226.546875 C 173.703125 -224.296875 170.445312 -221.789062 167.9375 -219.03125 C 165.4375 -216.28125 163.304688 -212.023438 161.546875 -206.265625 L 128.859375 -91.296875 C 126.609375 -82.773438 125.484375 -75.507812 125.484375 -69.5 C 125.484375 -52.71875 134.5 -44.328125 152.53125 -44.328125 C 163.550781 -44.328125 172.753906 -47.894531 180.140625 -55.03125 C 187.535156 -62.175781 193.738281 -74.390625 198.75 -91.671875 Z M 229.546875 -199.5 "/></g></g></g><g fill="#ffffff" fill-opacity="1"><g transform="translate(608.489866, 334.295009)"><g><path d="M 245.328125 -250.21875 C 254.597656 -250.21875 261.800781 -248.210938 266.9375 -244.203125 C 272.070312 -240.203125 274.640625 -234.691406 274.640625 -227.671875 C 274.640625 -224.171875 274.140625 -220.789062 273.140625 -217.53125 L 263.375 -182.59375 C 261.613281 -175.832031 259.039062 -171.132812 255.65625 -168.5 C 252.28125 -165.875 247.460938 -164.5625 241.203125 -164.5625 C 235.191406 -164.5625 230.492188 -165.875 227.109375 -168.5 C 223.734375 -171.132812 221.164062 -175.457031 219.40625 -181.46875 L 213.40625 -202.875 C 212.144531 -207.382812 210.640625 -210.390625 208.890625 -211.890625 C 207.140625 -213.398438 203.757812 -214.15625 198.75 -214.15625 L 159.296875 -214.15625 L 140.515625 -147.28125 L 157.046875 -147.28125 C 158.796875 -147.28125 161.175781 -148.53125 164.1875 -151.03125 L 176.953125 -162.296875 C 180.710938 -165.554688 183.96875 -167.9375 186.71875 -169.4375 C 189.476562 -170.945312 192.863281 -171.703125 196.875 -171.703125 C 201.375 -171.703125 205.0625 -170.507812 207.9375 -168.125 C 210.820312 -165.75 212.265625 -162.679688 212.265625 -158.921875 C 212.265625 -157.921875 212.015625 -156.414062 211.515625 -154.40625 L 196.109375 -102.1875 C 194.609375 -96.675781 192.039062 -92.601562 188.40625 -89.96875 C 184.78125 -87.34375 180.835938 -86.03125 176.578125 -86.03125 C 169.566406 -86.03125 164.304688 -89.664062 160.796875 -96.9375 L 154.40625 -110.078125 C 152.65625 -113.835938 149.90625 -115.71875 146.15625 -115.71875 L 131.5 -115.71875 L 109.328125 -36.0625 L 142.390625 -36.0625 C 147.148438 -36.0625 151.34375 -37 154.96875 -38.875 C 158.601562 -40.757812 162.550781 -44.082031 166.8125 -48.84375 L 189.359375 -73.640625 C 193.359375 -77.898438 197.175781 -80.96875 200.8125 -82.84375 C 204.445312 -84.71875 208.894531 -85.65625 214.15625 -85.65625 C 219.664062 -85.65625 224.171875 -84.398438 227.671875 -81.890625 C 231.179688 -79.390625 232.9375 -75.632812 232.9375 -70.625 C 232.9375 -68.625 232.5625 -66.25 231.8125 -63.5 L 220.90625 -25.546875 C 218.15625 -16.023438 214.148438 -9.382812 208.890625 -5.625 C 203.628906 -1.875 195.988281 0 185.96875 0 L 6.765625 0 C 1.503906 0 -2.5625 -0.875 -5.4375 -2.625 C -8.320312 -4.382812 -9.765625 -6.765625 -9.765625 -9.765625 C -9.765625 -11.265625 -9.390625 -12.894531 -8.640625 -14.65625 C -7.640625 -17.40625 -6.007812 -19.53125 -3.75 -21.03125 C -1.5 -22.539062 -0.125 -23.421875 0.375 -23.671875 C 4.382812 -26.171875 7.640625 -28.734375 10.140625 -31.359375 C 12.648438 -33.992188 14.78125 -38.316406 16.53125 -44.328125 L 62.75 -206.265625 C 63.75 -209.515625 64.25 -212.519531 64.25 -215.28125 C 64.25 -218.28125 63.804688 -220.78125 62.921875 -222.78125 C 62.046875 -224.789062 60.734375 -226.921875 58.984375 -229.171875 C 56.734375 -232.429688 55.609375 -235.0625 55.609375 -237.0625 C 55.609375 -237.820312 55.859375 -239.203125 56.359375 -241.203125 C 57.359375 -244.453125 59.609375 -246.765625 63.109375 -248.140625 C 66.617188 -249.523438 71.753906 -250.21875 78.515625 -250.21875 Z M 245.328125 -250.21875 "/></g></g></g><g fill="#ffffff" fill-opacity="1"><g transform="translate(860.579417, 334.295009)"><g><path d="M 140.515625 -252.46875 C 154.535156 -252.46875 167.492188 -250.773438 179.390625 -247.390625 C 191.296875 -244.015625 203.382812 -238.695312 215.65625 -231.4375 L 224.296875 -238.578125 C 230.304688 -243.328125 235.25 -246.578125 239.125 -248.328125 C 243.007812 -250.085938 247.457031 -250.96875 252.46875 -250.96875 C 258.476562 -250.96875 263.238281 -249.648438 266.75 -247.015625 C 270.257812 -244.390625 272.015625 -240.570312 272.015625 -235.5625 C 272.015625 -233.5625 271.632812 -231.429688 270.875 -229.171875 L 255.109375 -177.328125 C 253.347656 -171.316406 251.148438 -167.054688 248.515625 -164.546875 C 245.890625 -162.046875 241.945312 -160.796875 236.6875 -160.796875 C 231.175781 -160.796875 226.351562 -162.484375 222.21875 -165.859375 C 218.09375 -169.242188 211.644531 -176.195312 202.875 -186.71875 C 194.113281 -196.738281 186.160156 -203.816406 179.015625 -207.953125 C 171.878906 -212.085938 164.554688 -214.15625 157.046875 -214.15625 C 151.535156 -214.15625 146.898438 -212.335938 143.140625 -208.703125 C 139.378906 -205.066406 137.5 -200.617188 137.5 -195.359375 C 137.5 -189.347656 140.503906 -183.773438 146.515625 -178.640625 C 152.535156 -173.503906 161.929688 -167.054688 174.703125 -159.296875 C 187.722656 -151.535156 198.488281 -144.519531 207 -138.25 C 215.519531 -131.988281 222.785156 -124.222656 228.796875 -114.953125 C 234.804688 -105.691406 237.8125 -95.050781 237.8125 -83.03125 C 237.8125 -75.269531 236.5625 -67.503906 234.0625 -59.734375 C 228.050781 -39.703125 216.40625 -24.488281 199.125 -14.09375 C 181.84375 -3.695312 161.679688 1.5 138.640625 1.5 C 121.347656 1.5 106.816406 -0.5 95.046875 -4.5 C 83.273438 -8.507812 71.253906 -15.273438 58.984375 -24.796875 L 45.453125 -13.53125 C 39.191406 -8.269531 34.054688 -4.695312 30.046875 -2.8125 C 26.046875 -0.9375 21.539062 0 16.53125 0 C 10.769531 0 6.195312 -1.375 2.8125 -4.125 C -0.5625 -6.882812 -2.25 -10.644531 -2.25 -15.40625 C -2.25 -17.90625 -1.75 -20.535156 -0.75 -23.296875 L 17.65625 -79.265625 C 19.65625 -85.785156 22.410156 -90.421875 25.921875 -93.171875 C 29.429688 -95.929688 33.941406 -97.3125 39.453125 -97.3125 C 45.210938 -97.3125 50.40625 -95.304688 55.03125 -91.296875 C 59.664062 -87.285156 65.742188 -80.019531 73.265625 -69.5 C 81.273438 -57.976562 88.722656 -49.960938 95.609375 -45.453125 C 102.503906 -40.953125 110.707031 -38.703125 120.21875 -38.703125 C 126.988281 -38.703125 132.1875 -39.765625 135.8125 -41.890625 C 139.445312 -44.015625 142.015625 -47.457031 143.515625 -52.21875 C 144.015625 -53.46875 144.265625 -55.347656 144.265625 -57.859375 C 144.265625 -63.867188 141.382812 -69.378906 135.625 -74.390625 C 129.863281 -79.398438 120.972656 -85.410156 108.953125 -92.421875 C 96.179688 -100.179688 85.785156 -107.128906 77.765625 -113.265625 C 69.753906 -119.410156 62.804688 -127.113281 56.921875 -136.375 C 51.035156 -145.644531 48.09375 -156.539062 48.09375 -169.0625 C 48.09375 -177.832031 49.46875 -186.472656 52.21875 -194.984375 C 57.476562 -212.265625 68.25 -226.164062 84.53125 -236.6875 C 100.8125 -247.207031 119.472656 -252.46875 140.515625 -252.46875 Z M 140.515625 -252.46875 "/></g></g></g><g fill="#ffffff" fill-opacity="1"><g transform="translate(1119.431422, 334.295009)"><g><path d="M 140.515625 -252.46875 C 154.535156 -252.46875 167.492188 -250.773438 179.390625 -247.390625 C 191.296875 -244.015625 203.382812 -238.695312 215.65625 -231.4375 L 224.296875 -238.578125 C 230.304688 -243.328125 235.25 -246.578125 239.125 -248.328125 C 243.007812 -250.085938 247.457031 -250.96875 252.46875 -250.96875 C 258.476562 -250.96875 263.238281 -249.648438 266.75 -247.015625 C 270.257812 -244.390625 272.015625 -240.570312 272.015625 -235.5625 C 272.015625 -233.5625 271.632812 -231.429688 270.875 -229.171875 L 255.109375 -177.328125 C 253.347656 -171.316406 251.148438 -167.054688 248.515625 -164.546875 C 245.890625 -162.046875 241.945312 -160.796875 236.6875 -160.796875 C 231.175781 -160.796875 226.351562 -162.484375 222.21875 -165.859375 C 218.09375 -169.242188 211.644531 -176.195312 202.875 -186.71875 C 194.113281 -196.738281 186.160156 -203.816406 179.015625 -207.953125 C 171.878906 -212.085938 164.554688 -214.15625 157.046875 -214.15625 C 151.535156 -214.15625 146.898438 -212.335938 143.140625 -208.703125 C 139.378906 -205.066406 137.5 -200.617188 137.5 -195.359375 C 137.5 -189.347656 140.503906 -183.773438 146.515625 -178.640625 C 152.535156 -173.503906 161.929688 -167.054688 174.703125 -159.296875 C 187.722656 -151.535156 198.488281 -144.519531 207 -138.25 C 215.519531 -131.988281 222.785156 -124.222656 228.796875 -114.953125 C 234.804688 -105.691406 237.8125 -95.050781 237.8125 -83.03125 C 237.8125 -75.269531 236.5625 -67.503906 234.0625 -59.734375 C 228.050781 -39.703125 216.40625 -24.488281 199.125 -14.09375 C 181.84375 -3.695312 161.679688 1.5 138.640625 1.5 C 121.347656 1.5 106.816406 -0.5 95.046875 -4.5 C 83.273438 -8.507812 71.253906 -15.273438 58.984375 -24.796875 L 45.453125 -13.53125 C 39.191406 -8.269531 34.054688 -4.695312 30.046875 -2.8125 C 26.046875 -0.9375 21.539062 0 16.53125 0 C 10.769531 0 6.195312 -1.375 2.8125 -4.125 C -0.5625 -6.882812 -2.25 -10.644531 -2.25 -15.40625 C -2.25 -17.90625 -1.75 -20.535156 -0.75 -23.296875 L 17.65625 -79.265625 C 19.65625 -85.785156 22.410156 -90.421875 25.921875 -93.171875 C 29.429688 -95.929688 33.941406 -97.3125 39.453125 -97.3125 C 45.210938 -97.3125 50.40625 -95.304688 55.03125 -91.296875 C 59.664062 -87.285156 65.742188 -80.019531 73.265625 -69.5 C 81.273438 -57.976562 88.722656 -49.960938 95.609375 -45.453125 C 102.503906 -40.953125 110.707031 -38.703125 120.21875 -38.703125 C 126.988281 -38.703125 132.1875 -39.765625 135.8125 -41.890625 C 139.445312 -44.015625 142.015625 -47.457031 143.515625 -52.21875 C 144.015625 -53.46875 144.265625 -55.347656 144.265625 -57.859375 C 144.265625 -63.867188 141.382812 -69.378906 135.625 -74.390625 C 129.863281 -79.398438 120.972656 -85.410156 108.953125 -92.421875 C 96.179688 -100.179688 85.785156 -107.128906 77.765625 -113.265625 C 69.753906 -119.410156 62.804688 -127.113281 56.921875 -136.375 C 51.035156 -145.644531 48.09375 -156.539062 48.09375 -169.0625 C 48.09375 -177.832031 49.46875 -186.472656 52.21875 -194.984375 C 57.476562 -212.265625 68.25 -226.164062 84.53125 -236.6875 C 100.8125 -247.207031 119.472656 -252.46875 140.515625 -252.46875 Z M 140.515625 -252.46875 "/></g></g></g><g fill="#ffffff" fill-opacity="1"><g transform="translate(1378.283498, 334.295009)"><g><path d="M 215.28125 -96.9375 C 222.289062 -96.9375 227.609375 -95.492188 231.234375 -92.609375 C 234.867188 -89.734375 236.6875 -85.664062 236.6875 -80.40625 C 236.6875 -78.144531 236.3125 -75.640625 235.5625 -72.890625 L 223.171875 -28.921875 C 219.910156 -18.160156 215.335938 -10.648438 209.453125 -6.390625 C 203.566406 -2.128906 194.863281 0 183.34375 0 L 6.765625 0 C 1.503906 0 -2.5625 -0.875 -5.4375 -2.625 C -8.320312 -4.382812 -9.765625 -6.765625 -9.765625 -9.765625 C -9.765625 -11.265625 -9.390625 -12.894531 -8.640625 -14.65625 C -7.890625 -16.65625 -6.632812 -18.34375 -4.875 -19.71875 C -3.125 -21.101562 -1.25 -22.421875 0.75 -23.671875 C 4.757812 -26.171875 8.015625 -28.734375 10.515625 -31.359375 C 13.023438 -33.992188 15.15625 -38.316406 16.90625 -44.328125 L 62.75 -206.265625 C 63.75 -209.515625 64.25 -212.644531 64.25 -215.65625 C 64.25 -218.40625 63.804688 -220.71875 62.921875 -222.59375 C 62.046875 -224.476562 60.859375 -226.671875 59.359375 -229.171875 C 57.109375 -232.429688 55.984375 -235.0625 55.984375 -237.0625 C 55.984375 -237.820312 56.234375 -239.203125 56.734375 -241.203125 C 57.734375 -244.453125 59.921875 -246.765625 63.296875 -248.140625 C 66.679688 -249.523438 71.878906 -250.21875 78.890625 -250.21875 L 167.1875 -250.21875 C 172.445312 -250.21875 176.515625 -249.398438 179.390625 -247.765625 C 182.273438 -246.140625 183.71875 -243.828125 183.71875 -240.828125 C 183.71875 -239.578125 183.34375 -237.945312 182.59375 -235.9375 C 181.84375 -234.1875 180.773438 -232.617188 179.390625 -231.234375 C 178.015625 -229.859375 176.765625 -228.859375 175.640625 -228.234375 C 174.515625 -227.609375 173.703125 -227.046875 173.203125 -226.546875 C 169.191406 -224.296875 165.929688 -221.789062 163.421875 -219.03125 C 160.921875 -216.28125 158.796875 -212.023438 157.046875 -206.265625 L 108.578125 -36.0625 L 131.875 -36.0625 C 137.632812 -36.0625 142.578125 -37.0625 146.703125 -39.0625 C 150.835938 -41.070312 155.160156 -44.832031 159.671875 -50.34375 L 185.59375 -81.15625 C 190.351562 -86.664062 194.925781 -90.671875 199.3125 -93.171875 C 203.695312 -95.679688 209.019531 -96.9375 215.28125 -96.9375 Z M 215.28125 -96.9375 "/></g></g></g><g fill="#ffffff" fill-opacity="1"><g transform="translate(1622.859268, 334.295009)"><g><path d="M 245.328125 -250.21875 C 254.597656 -250.21875 261.800781 -248.210938 266.9375 -244.203125 C 272.070312 -240.203125 274.640625 -234.691406 274.640625 -227.671875 C 274.640625 -224.171875 274.140625 -220.789062 273.140625 -217.53125 L 263.375 -182.59375 C 261.613281 -175.832031 259.039062 -171.132812 255.65625 -168.5 C 252.28125 -165.875 247.460938 -164.5625 241.203125 -164.5625 C 235.191406 -164.5625 230.492188 -165.875 227.109375 -168.5 C 223.734375 -171.132812 221.164062 -175.457031 219.40625 -181.46875 L 213.40625 -202.875 C 212.144531 -207.382812 210.640625 -210.390625 208.890625 -211.890625 C 207.140625 -213.398438 203.757812 -214.15625 198.75 -214.15625 L 159.296875 -214.15625 L 140.515625 -147.28125 L 157.046875 -147.28125 C 158.796875 -147.28125 161.175781 -148.53125 164.1875 -151.03125 L 176.953125 -162.296875 C 180.710938 -165.554688 183.96875 -167.9375 186.71875 -169.4375 C 189.476562 -170.945312 192.863281 -171.703125 196.875 -171.703125 C 201.375 -171.703125 205.0625 -170.507812 207.9375 -168.125 C 210.820312 -165.75 212.265625 -162.679688 212.265625 -158.921875 C 212.265625 -157.921875 212.015625 -156.414062 211.515625 -154.40625 L 196.109375 -102.1875 C 194.609375 -96.675781 192.039062 -92.601562 188.40625 -89.96875 C 184.78125 -87.34375 180.835938 -86.03125 176.578125 -86.03125 C 169.566406 -86.03125 164.304688 -89.664062 160.796875 -96.9375 L 154.40625 -110.078125 C 152.65625 -113.835938 149.90625 -115.71875 146.15625 -115.71875 L 131.5 -115.71875 L 109.328125 -36.0625 L 142.390625 -36.0625 C 147.148438 -36.0625 151.34375 -37 154.96875 -38.875 C 158.601562 -40.757812 162.550781 -44.082031 166.8125 -48.84375 L 189.359375 -73.640625 C 193.359375 -77.898438 197.175781 -80.96875 200.8125 -82.84375 C 204.445312 -84.71875 208.894531 -85.65625 214.15625 -85.65625 C 219.664062 -85.65625 224.171875 -84.398438 227.671875 -81.890625 C 231.179688 -79.390625 232.9375 -75.632812 232.9375 -70.625 C 232.9375 -68.625 232.5625 -66.25 231.8125 -63.5 L 220.90625 -25.546875 C 218.15625 -16.023438 214.148438 -9.382812 208.890625 -5.625 C 203.628906 -1.875 195.988281 0 185.96875 0 L 6.765625 0 C 1.503906 0 -2.5625 -0.875 -5.4375 -2.625 C -8.320312 -4.382812 -9.765625 -6.765625 -9.765625 -9.765625 C -9.765625 -11.265625 -9.390625 -12.894531 -8.640625 -14.65625 C -7.640625 -17.40625 -6.007812 -19.53125 -3.75 -21.03125 C -1.5 -22.539062 -0.125 -23.421875 0.375 -23.671875 C 4.382812 -26.171875 7.640625 -28.734375 10.140625 -31.359375 C 12.648438 -33.992188 14.78125 -38.316406 16.53125 -44.328125 L 62.75 -206.265625 C 63.75 -209.515625 64.25 -212.519531 64.25 -215.28125 C 64.25 -218.28125 63.804688 -220.78125 62.921875 -222.78125 C 62.046875 -224.789062 60.734375 -226.921875 58.984375 -229.171875 C 56.734375 -232.429688 55.609375 -235.0625 55.609375 -237.0625 C 55.609375 -237.820312 55.859375 -239.203125 56.359375 -241.203125 C 57.359375 -244.453125 59.609375 -246.765625 63.109375 -248.140625 C 66.617188 -249.523438 71.753906 -250.21875 78.515625 -250.21875 Z M 245.328125 -250.21875 "/></g></g></g></svg>